<svg width="48" height="48" viewBox="0 0 48 48" fill="none" xmlns="http://www.w3.org/2000/svg">
<path fill-rule="evenodd" clip-rule="evenodd" d="M20.0422 14.4576C21.0659 14.4105 21.3923 14.4 24 14.4C26.6077 14.4 26.9341 14.4113 27.957 14.4576C28.9798 14.5039 29.678 14.6671 30.2889 14.9036C30.9286 15.1453 31.509 15.5232 31.989 16.0119C32.4777 16.4911 32.8547 17.0705 33.0956 17.7111C33.333 18.322 33.4953 19.0202 33.5424 20.0413C33.5896 21.0668 33.6 21.3932 33.6 24C33.6 26.6077 33.5887 26.9341 33.5424 27.9578C33.4962 28.9789 33.333 29.6771 33.0956 30.288C32.8547 30.9287 32.4771 31.5091 31.989 31.9889C31.509 32.4777 30.9286 32.8547 30.2889 33.0956C29.678 33.3329 28.9798 33.4953 27.9587 33.5424C26.9341 33.5895 26.6077 33.6 24 33.6C21.3923 33.6 21.0659 33.5887 20.0422 33.5424C19.0211 33.4961 18.3229 33.3329 17.712 33.0956C17.0714 32.8547 16.4909 32.477 16.0111 31.9889C15.5227 31.5095 15.1447 30.9294 14.9036 30.2889C14.6671 29.678 14.5048 28.9798 14.4576 27.9587C14.4105 26.9332 14.4 26.6068 14.4 24C14.4 21.3923 14.4114 21.0659 14.4576 20.0431C14.5039 19.0202 14.6671 18.322 14.9036 17.7111C15.1451 17.0706 15.5233 16.4905 16.012 16.0111C16.4911 15.5228 17.071 15.1448 17.7112 14.9036C18.3221 14.6671 19.0211 14.5047 20.0422 14.4576ZM27.8793 16.1856C26.8669 16.1393 26.5632 16.1297 24 16.1297C21.4368 16.1297 21.1331 16.1393 20.1208 16.1856C19.1843 16.2284 18.6764 16.3846 18.3378 16.5164C17.8901 16.6909 17.5698 16.8977 17.2338 17.2337C16.9153 17.5436 16.6701 17.9208 16.5164 18.3377C16.3846 18.6764 16.2284 19.1843 16.1856 20.1207C16.1394 21.1331 16.1298 21.4368 16.1298 24C16.1298 26.5632 16.1394 26.8669 16.1856 27.8793C16.2284 28.8157 16.3846 29.3236 16.5164 29.6623C16.67 30.0785 16.9152 30.4564 17.2338 30.7663C17.5436 31.0848 17.9215 31.33 18.3378 31.4836C18.6764 31.6154 19.1843 31.7716 20.1208 31.8144C21.1331 31.8607 21.436 31.8703 24 31.8703C26.5641 31.8703 26.8669 31.8607 27.8793 31.8144C28.8157 31.7716 29.3237 31.6154 29.6623 31.4836C30.11 31.3091 30.4303 31.1023 30.7663 30.7663C31.0848 30.4564 31.3301 30.0785 31.4837 29.6623C31.6154 29.3236 31.7717 28.8157 31.8144 27.8793C31.8607 26.8669 31.8703 26.5632 31.8703 24C31.8703 21.4368 31.8607 21.1331 31.8144 20.1207C31.7717 19.1843 31.6154 18.6764 31.4837 18.3377C31.3091 17.89 31.1023 17.5697 30.7663 17.2337C30.4564 16.9153 30.0792 16.6701 29.6623 16.5164C29.3237 16.3846 28.8157 16.2284 27.8793 16.1856ZM22.7738 26.9594C23.4586 27.2445 24.2212 27.283 24.9312 27.0683C25.6412 26.8536 26.2546 26.3991 26.6667 25.7823C27.0789 25.1656 27.2641 24.4249 27.1908 23.6868C27.1174 22.9487 26.7901 22.2589 26.2648 21.7353C25.9298 21.4006 25.5249 21.1443 25.079 20.9849C24.6331 20.8254 24.1575 20.7669 23.6863 20.8133C23.2151 20.8598 22.76 21.0102 22.3539 21.2536C21.9478 21.4971 21.6007 21.8276 21.3376 22.2213C21.0745 22.6149 20.902 23.0621 20.8325 23.5304C20.7629 23.9988 20.7981 24.4768 20.9355 24.9299C21.0728 25.383 21.309 25.8001 21.6268 26.151C21.9447 26.502 22.3365 26.7781 22.7738 26.9594ZM20.5109 20.5108C20.9691 20.0526 21.513 19.6892 22.1117 19.4412C22.7104 19.1932 23.352 19.0656 24 19.0656C24.648 19.0656 25.2897 19.1932 25.8883 19.4412C26.487 19.6892 27.031 20.0526 27.4892 20.5108C27.9474 20.969 28.3109 21.513 28.5588 22.1117C28.8068 22.7104 28.9344 23.352 28.9344 24C28.9344 24.648 28.8068 25.2896 28.5588 25.8883C28.3109 26.487 27.9474 27.031 27.4892 27.4892C26.5638 28.4145 25.3087 28.9344 24 28.9344C22.6913 28.9344 21.4362 28.4145 20.5109 27.4892C19.5855 26.5638 19.0656 25.3087 19.0656 24C19.0656 22.6913 19.5855 21.4362 20.5109 20.5108ZM30.0288 19.8004C30.1424 19.6933 30.2333 19.5645 30.2961 19.4216C30.359 19.2788 30.3926 19.1247 30.3949 18.9687C30.3971 18.8126 30.3681 18.6576 30.3094 18.513C30.2507 18.3684 30.1636 18.237 30.0532 18.1266C29.9429 18.0162 29.8115 17.9291 29.6668 17.8704C29.5222 17.8117 29.3672 17.7827 29.2111 17.7849C29.0551 17.7872 28.901 17.8208 28.7582 17.8837C28.6153 17.9465 28.4865 18.0374 28.3794 18.151C28.1711 18.3718 28.057 18.6651 28.0614 18.9687C28.0659 19.2722 28.1884 19.5621 28.4031 19.7767C28.6177 19.9914 28.9076 20.1139 29.2111 20.1184C29.5147 20.1228 29.808 20.0087 30.0288 19.8004Z" fill="#34332F"/>
<circle cx="24" cy="24" r="23.4" stroke="#34332F" stroke-width="1.2"/>
</svg>
