<svg width="64" height="63" viewBox="0 0 64 63" fill="none" xmlns="http://www.w3.org/2000/svg">
<path fill-rule="evenodd" clip-rule="evenodd" d="M8.70068 16.3742C8.70068 12.1029 12.1633 8.64035 16.4346 8.64035H47.3702C51.6415 8.64035 55.1041 12.1029 55.1041 16.3743V45.3764C55.1041 49.6477 51.6415 53.1103 47.3702 53.1103H16.4346C12.1633 53.1103 8.70068 49.6477 8.70068 45.3764V16.3742ZM11.6009 22.1747C11.6009 21.6408 12.0337 21.2079 12.5676 21.2079H51.2371C51.771 21.2079 52.2038 21.6408 52.2038 22.1747V46.3431C52.2038 48.4788 50.4726 50.2101 48.3369 50.2101H15.4678C13.3321 50.2101 11.6009 48.4788 11.6009 46.3431V22.1747ZM15.9512 17.341C17.286 17.341 18.368 16.2589 18.368 14.9241C18.368 13.5894 17.286 12.5073 15.9512 12.5073C14.6164 12.5073 13.5343 13.5894 13.5343 14.9241C13.5343 16.2589 14.6164 17.341 15.9512 17.341ZM24.1684 14.9241C24.1684 16.2589 23.0864 17.341 21.7516 17.341C20.4168 17.341 19.3347 16.2589 19.3347 14.9241C19.3347 13.5894 20.4168 12.5073 21.7516 12.5073C23.0864 12.5073 24.1684 13.5894 24.1684 14.9241ZM27.552 17.341C28.8868 17.341 29.9688 16.2589 29.9688 14.9241C29.9688 13.5894 28.8868 12.5073 27.552 12.5073C26.2172 12.5073 25.1352 13.5894 25.1352 14.9241C25.1352 16.2589 26.2172 17.341 27.552 17.341Z" fill="#34332F"/>
<rect x="14.5011" y="25.0749" width="34.8026" height="9.66738" rx="0.386695" fill="#34332F"/>
<rect x="14.5011" y="37.6425" width="9.66738" height="9.66738" rx="0.386695" fill="#34332F"/>
<rect x="27.0686" y="37.6425" width="9.66738" height="9.66738" rx="0.386695" fill="#34332F"/>
<rect x="39.6362" y="37.6425" width="9.66738" height="9.66738" rx="0.386695" fill="#34332F"/>
<path d="M31.6099 0.449948C31.7639 0.230897 32.0886 0.230897 32.2426 0.449948L35.7048 5.37442C35.885 5.63064 35.7017 5.98352 35.3885 5.98352H28.464C28.1508 5.98352 27.9675 5.63064 28.1476 5.37442L31.6099 0.449948Z" fill="#34332F"/>
<path d="M31.6099 61.6653C31.7639 61.8844 32.0886 61.8844 32.2426 61.6653L35.7048 56.7409C35.885 56.4847 35.7017 56.1318 35.3885 56.1318H28.464C28.1508 56.1318 27.9675 56.4847 28.1476 56.7409L31.6099 61.6653Z" fill="#34332F"/>
<path d="M63.5501 31.1677C63.7691 31.0137 63.7691 30.689 63.5501 30.535L58.6256 27.0728C58.3694 26.8926 58.0165 27.0759 58.0165 27.3891V34.3136C58.0165 34.6268 58.3694 34.8101 58.6256 34.63L63.5501 31.1677Z" fill="#34332F"/>
<path d="M0.449933 31.1677C0.230882 31.0137 0.230882 30.689 0.449933 30.535L5.3744 27.0728C5.63062 26.8926 5.9835 27.0759 5.9835 27.3891L5.9835 34.3136C5.9835 34.6268 5.63062 34.8101 5.3744 34.63L0.449933 31.1677Z" fill="#34332F"/>
</svg>
