<svg width="48" height="48" viewBox="0 0 48 48" fill="none" xmlns="http://www.w3.org/2000/svg">
<path fill-rule="evenodd" clip-rule="evenodd" d="M20.9148 20.3628H25.3716V22.5828C26.0136 21.306 27.66 20.1588 30.1332 20.1588C34.8744 20.1588 36 22.7004 36 27.3636V36H31.2V28.4256C31.2 25.77 30.558 24.2724 28.9236 24.2724C26.6568 24.2724 25.7148 25.8864 25.7148 28.4244V36H20.9148V20.3628ZM12.684 35.796H17.484V20.1588H12.684V35.796ZM18.1716 15.06C18.1718 15.4623 18.092 15.8607 17.9369 16.2319C17.7817 16.6031 17.5544 16.9398 17.268 17.2224C16.6877 17.7991 15.9022 18.122 15.084 18.12C14.2673 18.1195 13.4836 17.7974 12.9024 17.2236C12.6171 16.9401 12.3905 16.603 12.2356 16.2317C12.0808 15.8604 12.0007 15.4623 12 15.06C12 14.2476 12.324 13.47 12.9036 12.8964C13.4843 12.3218 14.2683 11.9996 15.0852 12C15.9036 12 16.6884 12.3228 17.268 12.8964C17.8464 13.47 18.1716 14.2476 18.1716 15.06Z" fill="#34332F"/>
<circle cx="24" cy="24" r="23.4" stroke="#34332F" stroke-width="1.2"/>
</svg>
