<svg width="70" height="70" viewBox="0 0 70 70" fill="none" xmlns="http://www.w3.org/2000/svg">
<path fill-rule="evenodd" clip-rule="evenodd" d="M63.3115 23.352C64.2082 23.1116 64.9726 22.5248 65.4367 21.7207C65.9008 20.9167 66.0264 19.9612 65.786 19.0645C65.5456 18.1678 64.9588 17.4033 64.1547 16.9393C63.3506 16.4752 62.3952 16.3496 61.4985 16.59L58.1175 17.4965C57.2208 17.7369 56.4563 18.3237 55.9923 19.1278C55.5282 19.9318 55.4026 20.8873 55.643 21.784C55.8834 22.6807 56.4702 23.4452 57.2742 23.9092C58.0783 24.3733 59.0338 24.4989 59.9305 24.2585L63.3115 23.3485V23.352ZM53.41 8.5015C53.5312 8.05673 53.5634 7.59238 53.5047 7.13514C53.446 6.6779 53.2975 6.23676 53.0678 5.83706C52.8381 5.43736 52.5317 5.08697 52.1662 4.80603C51.8007 4.52508 51.3833 4.31911 50.938 4.19994C50.4926 4.08077 50.0281 4.05075 49.5712 4.11161C49.1142 4.17246 48.6738 4.32299 48.2751 4.55455C47.8765 4.78611 47.5276 5.09414 47.2483 5.46095C46.9691 5.82776 46.7651 6.24611 46.648 6.692L45.7415 10.073C45.5064 10.9681 45.6354 11.9198 46.1003 12.72C46.5651 13.5202 47.328 14.1038 48.2219 14.343C49.1159 14.5822 50.0682 14.4577 50.8706 13.9966C51.673 13.5355 52.2601 12.7753 52.5035 11.8825L53.4135 8.5015H53.41ZM55.4015 39.3505C55.7267 39.6754 56.1127 39.9332 56.5375 40.1089C56.9622 40.2847 57.4175 40.3751 57.8772 40.375C58.3369 40.3748 58.7921 40.2841 59.2168 40.108C59.6414 39.9319 60.0273 39.6739 60.3522 39.3487C60.6772 39.0236 60.9349 38.6376 61.1107 38.2128C61.2865 37.788 61.3768 37.3327 61.3767 36.873C61.3765 36.4133 61.2858 35.9581 61.1097 35.5334C60.9337 35.1088 60.6757 34.7229 60.3505 34.398L57.876 31.9235C57.5508 31.5983 57.1647 31.3404 56.7399 31.1644C56.315 30.9884 55.8596 30.8978 55.3997 30.8978C54.9398 30.8978 54.4845 30.9884 54.0596 31.1644C53.6347 31.3404 53.2487 31.5983 52.9235 31.9235C52.5983 32.2487 52.3403 32.6347 52.1643 33.0596C51.9884 33.4845 51.8978 33.9399 51.8978 34.3997C51.8978 34.8596 51.9884 35.315 52.1643 35.7399C52.3403 36.1648 52.5983 36.5508 52.9235 36.876L55.4015 39.3505ZM30.6495 14.602L33.124 17.0765C33.7802 17.7337 34.6707 18.1033 35.5995 18.1039C36.5283 18.1046 37.4193 17.7363 38.0765 17.08C38.7337 16.4237 39.1033 15.5332 39.1039 14.6045C39.1046 13.6757 38.7362 12.7847 38.08 12.1275L35.6055 9.6495C34.9487 8.99275 34.058 8.6238 33.1292 8.6238C32.2004 8.6238 31.3097 8.99275 30.653 9.6495C29.9962 10.3062 29.6273 11.197 29.6273 12.1257C29.6273 13.0545 29.9962 13.9453 30.653 14.602H30.6495ZM48.748 25.802C49.0026 25.1659 49.0649 24.4692 48.9272 23.798C48.7895 23.1269 48.4579 22.5109 47.9735 22.0265C47.489 21.542 46.8731 21.2104 46.2019 21.0728C45.5308 20.9351 44.834 20.9974 44.198 21.252L9.19796 35.252C8.57154 35.5028 8.03099 35.9294 7.64139 36.4803C7.25179 37.0313 7.02975 37.6831 7.00201 38.3573C6.97427 39.0315 7.14202 39.6994 7.48505 40.2804C7.82808 40.8615 8.33176 41.331 8.93546 41.6325L18.592 46.4625L8.02196 57.0255C7.36568 57.6822 6.99718 58.5728 6.99751 59.5012C6.99783 60.4297 7.36697 61.32 8.02371 61.9762C8.68045 62.6325 9.57101 63.001 10.4995 63.0007C11.4279 63.0004 12.3182 62.6312 12.9745 61.9745L23.5445 51.408L28.371 61.068C28.6732 61.6705 29.1429 62.173 29.7238 62.515C30.3047 62.857 30.9719 63.024 31.6454 62.9959C32.3189 62.9678 32.97 62.7458 33.5204 62.3567C34.0707 61.9675 34.497 61.4276 34.748 60.802L48.748 25.802Z" fill="#34332F"/>
</svg>
