<svg width="48" height="48" viewBox="0 0 48 48" fill="none" xmlns="http://www.w3.org/2000/svg">
<path d="M34 17.5956C33.2792 17.9237 32.4949 18.1598 31.6869 18.2517C32.5258 17.7259 33.1539 16.8953 33.4536 15.9156C32.6664 16.4097 31.8041 16.7561 30.9049 16.9395C30.5291 16.5156 30.0745 16.1779 29.5696 15.9475C29.0647 15.717 28.5201 15.5987 27.97 15.6C25.744 15.6 23.9539 17.5037 23.9539 19.8398C23.9539 20.1678 23.9916 20.4959 24.0528 20.8115C20.7198 20.6276 17.7472 18.9476 15.7709 16.3754C15.4108 17.0243 15.2221 17.7632 15.2244 18.5152C15.2244 19.9864 15.9334 21.2837 17.0146 22.0466C16.3775 22.0202 15.7552 21.8354 15.1985 21.5073V21.5595C15.1985 23.6198 16.5788 25.3271 18.4185 25.7198C18.0731 25.8144 17.7177 25.8629 17.3609 25.8639C17.0994 25.8639 16.8521 25.8366 16.6024 25.7993C17.1112 27.4793 18.5928 28.6995 20.357 28.7393C18.9767 29.88 17.2478 30.551 15.3705 30.551C15.0337 30.551 14.7227 30.5386 14.4 30.4988C16.1808 31.7041 18.2936 32.4 20.569 32.4C27.9558 32.4 31.9979 25.9434 31.9979 20.3393C31.9979 20.1554 31.9979 19.9715 31.9861 19.7876C32.7681 19.1837 33.4536 18.4356 34 17.5956Z" fill="#34332F"/>
<circle cx="24" cy="24" r="23.4" stroke="#34332F" stroke-width="1.2"/>
</svg>
