<svg width="64" height="60" viewBox="0 0 64 60" fill="none" xmlns="http://www.w3.org/2000/svg">
<path d="M13.0721 17.6144L5.88852 13.1562L9.52237 28.6786L25.0447 25.0447L17.8612 20.5865C22.78 12.6607 33.2188 10.2169 41.1447 15.1358C43.5632 16.6367 45.4904 18.6619 46.8091 20.9729L52.4748 19.6466C50.6887 15.951 47.8762 12.6798 44.1168 10.3467C33.533 3.7783 19.6405 7.0306 13.0721 17.6144ZM46.5955 38.4193C41.6766 46.3452 31.2378 48.789 23.3119 43.8701C20.8935 42.3692 18.9662 40.3439 17.6475 38.0329L11.9818 39.3593C13.768 43.0549 16.5804 46.326 20.3398 48.6591C30.9236 55.2275 44.8161 51.9753 51.3845 41.3914L58.5681 45.8496L54.9343 30.3273L39.4119 33.9611L46.5955 38.4193Z" fill="#34332F"/>
</svg>
